<svg width="131" height="40" viewBox="0 0 131 40" fill="none" xmlns="http://www.w3.org/2000/svg">
<path d="M89.4137 13.017L86.5787 22.224C86.5607 22.278 86.5697 22.332 86.6057 22.386C86.6417 22.422 86.6867 22.44 86.7407 22.44H92.1407C92.1947 22.44 92.2397 22.422 92.2757 22.386C92.3117 22.332 92.3207 22.278 92.3027 22.224L89.4677 13.017C89.4677 12.999 89.4587 12.99 89.4407 12.99C89.4227 12.99 89.4137 12.999 89.4137 13.017ZM82.6637 30C82.2857 30 81.9797 29.847 81.7457 29.541C81.5297 29.235 81.4847 28.902 81.6107 28.542L87.3887 11.748C87.5327 11.316 87.7937 10.965 88.1717 10.695C88.5497 10.425 88.9637 10.29 89.4137 10.29H89.5757C90.0437 10.29 90.4577 10.425 90.8177 10.695C91.1957 10.965 91.4567 11.316 91.6007 11.748L97.3787 28.542C97.5047 28.902 97.4507 29.235 97.2167 29.541C97.0007 29.847 96.7037 30 96.3257 30H96.2177C95.7677 30 95.3537 29.865 94.9757 29.595C94.6157 29.325 94.3637 28.974 94.2197 28.542L93.1397 24.978C93.1217 24.834 93.0227 24.762 92.8427 24.762H86.0387C85.8767 24.762 85.7777 24.834 85.7417 24.978L84.6617 28.542C84.5357 28.974 84.2837 29.325 83.9057 29.595C83.5457 29.865 83.1317 30 82.6637 30ZM103.146 12.882V27.408C103.146 27.552 103.218 27.642 103.362 27.678C103.974 27.786 104.622 27.84 105.306 27.84C107.7 27.84 109.446 27.228 110.544 26.004C111.642 24.762 112.191 22.719 112.191 19.875C112.191 17.319 111.624 15.447 110.49 14.259C109.374 13.053 107.646 12.45 105.306 12.45C104.622 12.45 103.974 12.504 103.362 12.612C103.218 12.648 103.146 12.738 103.146 12.882ZM101.715 30.081C101.265 30.027 100.896 29.838 100.608 29.514C100.32 29.172 100.176 28.776 100.176 28.326V11.964C100.176 11.514 100.32 11.127 100.608 10.803C100.896 10.461 101.265 10.263 101.715 10.209C102.795 10.083 103.992 10.02 105.306 10.02C108.492 10.02 110.904 10.848 112.542 12.504C114.198 14.142 115.026 16.599 115.026 19.875C115.026 26.805 111.786 30.27 105.306 30.27C103.992 30.27 102.795 30.207 101.715 30.081ZM123.104 21.225C121.052 20.523 119.567 19.686 118.649 18.714C117.749 17.724 117.299 16.536 117.299 15.15C117.299 13.566 117.803 12.315 118.811 11.397C119.819 10.479 121.205 10.02 122.969 10.02C124.625 10.02 126.083 10.218 127.343 10.614C127.721 10.74 128.027 10.983 128.261 11.343C128.513 11.685 128.639 12.072 128.639 12.504C128.639 12.81 128.504 13.044 128.234 13.206C127.964 13.368 127.685 13.386 127.397 13.26C126.029 12.684 124.643 12.396 123.239 12.396C122.267 12.396 121.52 12.639 120.998 13.125C120.476 13.611 120.215 14.286 120.215 15.15C120.215 15.852 120.458 16.491 120.944 17.067C121.43 17.625 122.15 18.066 123.104 18.39C125.48 19.182 127.127 20.064 128.045 21.036C128.981 22.008 129.449 23.241 129.449 24.735C129.449 26.553 128.891 27.93 127.775 28.866C126.659 29.802 125.012 30.27 122.834 30.27C121.412 30.27 120.125 30.054 118.973 29.622C118.127 29.28 117.704 28.614 117.704 27.624C117.704 27.318 117.839 27.093 118.109 26.949C118.379 26.805 118.649 26.805 118.919 26.949C120.035 27.543 121.25 27.84 122.564 27.84C125.174 27.84 126.479 26.805 126.479 24.735C126.479 23.943 126.218 23.268 125.696 22.71C125.192 22.152 124.328 21.657 123.104 21.225Z" fill="#2E2929"/>
<path d="M8.586 17.58C11.106 18.318 12.861 19.2 13.851 20.226C14.841 21.252 15.336 22.62 15.336 24.33C15.336 28.29 12.771 30.27 7.641 30.27C6.003 30.27 4.518 30 3.186 29.46C2.772 29.298 2.439 29.01 2.187 28.596C1.953 28.182 1.836 27.732 1.836 27.246V25.869C1.836 25.527 1.98 25.275 2.268 25.113C2.556 24.951 2.853 24.942 3.159 25.086C4.581 25.752 5.985 26.085 7.371 26.085C8.991 26.085 9.801 25.545 9.801 24.465C9.801 23.961 9.675 23.574 9.423 23.304C9.171 23.034 8.712 22.791 8.046 22.575C5.652 21.837 3.924 20.919 2.862 19.821C1.818 18.705 1.296 17.328 1.296 15.69C1.296 13.926 1.926 12.54 3.186 11.532C4.464 10.524 6.309 10.02 8.721 10.02C10.449 10.02 11.988 10.209 13.338 10.587C13.77 10.713 14.121 10.974 14.391 11.37C14.661 11.748 14.796 12.171 14.796 12.639V13.962C14.796 14.322 14.643 14.61 14.337 14.826C14.049 15.024 13.725 15.06 13.365 14.934C11.763 14.412 10.305 14.151 8.991 14.151C7.515 14.151 6.777 14.664 6.777 15.69C6.777 16.59 7.38 17.22 8.586 17.58ZM25.365 26.49C26.067 26.49 26.625 26.202 27.039 25.626C27.453 25.032 27.66 24.15 27.66 22.98C27.66 20.64 26.895 19.47 25.365 19.47C24.789 19.47 24.258 19.686 23.772 20.118C23.304 20.55 23.07 21.009 23.07 21.495V24.465C23.07 24.951 23.304 25.41 23.772 25.842C24.258 26.274 24.789 26.49 25.365 26.49ZM27.255 15.69C28.911 15.69 30.225 16.32 31.197 17.58C32.169 18.822 32.655 20.622 32.655 22.98C32.655 25.284 32.142 27.075 31.116 28.353C30.108 29.631 28.821 30.27 27.255 30.27C25.833 30.27 24.51 29.73 23.286 28.65C23.268 28.632 23.25 28.623 23.232 28.623C23.214 28.623 23.205 28.632 23.205 28.65V34.401C23.205 34.815 23.052 35.175 22.746 35.481C22.44 35.787 22.08 35.94 21.666 35.94H19.614C19.2 35.94 18.84 35.787 18.534 35.481C18.228 35.175 18.075 34.815 18.075 34.401V17.499C18.075 17.085 18.228 16.725 18.534 16.419C18.84 16.113 19.2 15.96 19.614 15.96H21.45C21.882 15.96 22.251 16.113 22.557 16.419C22.863 16.707 23.025 17.067 23.043 17.499V17.715C23.043 17.733 23.052 17.742 23.07 17.742C23.088 17.742 23.106 17.733 23.124 17.715C24.24 16.365 25.617 15.69 27.255 15.69ZM42.9351 24.33V24.168C42.9351 24.006 42.8541 23.925 42.6921 23.925H41.8551C40.0551 23.925 39.1551 24.465 39.1551 25.545C39.1551 26.355 39.6051 26.76 40.5051 26.76C41.2071 26.76 41.7831 26.544 42.2331 26.112C42.7011 25.662 42.9351 25.068 42.9351 24.33ZM41.3151 15.69C43.6911 15.69 45.4101 16.122 46.4721 16.986C47.5341 17.85 48.0651 19.218 48.0651 21.09V28.461C48.0651 28.875 47.9121 29.235 47.6061 29.541C47.3001 29.847 46.9401 30 46.5261 30H44.8251C44.3931 30 44.0241 29.856 43.7181 29.568C43.4121 29.262 43.2501 28.893 43.2321 28.461V28.245C43.2321 28.227 43.2231 28.218 43.2051 28.218C43.1871 28.218 43.1691 28.227 43.1511 28.245C41.9991 29.595 40.5771 30.27 38.8851 30.27C37.6251 30.27 36.5901 29.874 35.7801 29.082C34.9701 28.272 34.5651 27.228 34.5651 25.95C34.5651 22.71 36.9951 21.09 41.8551 21.09H42.6921C42.8541 21.09 42.9351 21.009 42.9351 20.847V20.82C42.9351 19.74 42.3051 19.2 41.0451 19.2C39.9651 19.2 38.5701 19.362 36.8601 19.686C36.4821 19.758 36.1401 19.677 35.8341 19.443C35.5281 19.191 35.3751 18.867 35.3751 18.471V18.039C35.3751 17.589 35.5101 17.184 35.7801 16.824C36.0681 16.464 36.4281 16.248 36.8601 16.176C38.6421 15.852 40.1271 15.69 41.3151 15.69ZM61.017 26.301C61.413 26.229 61.764 26.31 62.07 26.544C62.376 26.778 62.529 27.093 62.529 27.489V28.191C62.529 28.641 62.385 29.037 62.097 29.379C61.827 29.721 61.467 29.928 61.017 30C59.757 30.18 58.686 30.27 57.804 30.27C55.41 30.27 53.574 29.658 52.296 28.434C51.018 27.21 50.379 25.392 50.379 22.98C50.379 20.622 50.991 18.822 52.215 17.58C53.457 16.32 55.23 15.69 57.534 15.69C58.416 15.69 59.487 15.78 60.747 15.96C61.197 16.032 61.557 16.239 61.827 16.581C62.115 16.923 62.259 17.319 62.259 17.769V18.471C62.259 18.867 62.106 19.182 61.8 19.416C61.494 19.65 61.143 19.731 60.747 19.659C60.009 19.533 59.253 19.47 58.479 19.47C57.561 19.47 56.877 19.749 56.427 20.307C55.995 20.865 55.779 21.756 55.779 22.98C55.779 24.222 56.013 25.122 56.481 25.68C56.967 26.22 57.723 26.49 58.749 26.49C59.523 26.49 60.279 26.427 61.017 26.301ZM73.9266 21.63C74.0886 21.63 74.1696 21.549 74.1696 21.387C74.1516 20.559 73.9716 19.965 73.6296 19.605C73.3056 19.245 72.8106 19.065 72.1446 19.065C71.4426 19.065 70.9116 19.245 70.5516 19.605C70.2096 19.947 69.9936 20.55 69.9036 21.414C69.9036 21.558 69.9756 21.63 70.1196 21.63H73.9266ZM72.0096 15.69C76.5816 15.69 78.8766 18.102 78.8946 22.926C78.8946 23.358 78.7326 23.727 78.4086 24.033C78.0846 24.321 77.6976 24.465 77.2476 24.465H70.1736C70.0116 24.465 69.9486 24.546 69.9846 24.708C70.1466 25.464 70.4976 25.995 71.0376 26.301C71.5956 26.607 72.4596 26.76 73.6296 26.76C74.3676 26.76 75.2676 26.652 76.3296 26.436C76.7076 26.346 77.0496 26.427 77.3556 26.679C77.6616 26.913 77.8146 27.228 77.8146 27.624V28.056C77.8146 28.506 77.6706 28.92 77.3826 29.298C77.1126 29.658 76.7616 29.874 76.3296 29.946C75.2316 30.162 74.0616 30.27 72.8196 30.27C70.2636 30.27 68.2926 29.649 66.9066 28.407C65.5386 27.147 64.8546 25.338 64.8546 22.98C64.8546 20.64 65.4666 18.84 66.6906 17.58C67.9146 16.32 69.6876 15.69 72.0096 15.69Z" fill="url(#paint0_linear_1_2321)"/>
<defs>
<linearGradient id="paint0_linear_1_2321" x1="59.5002" y1="8.21791e-07" x2="29.0002" y2="37.5" gradientUnits="userSpaceOnUse">
<stop stop-color="#423FE8"/>
<stop offset="1" stop-color="#9D63FB"/>
</linearGradient>
</defs>
</svg>
