<svg width="332" height="332" viewBox="0 0 332 332" fill="none" xmlns="http://www.w3.org/2000/svg">
<g filter="url(#filter0_df_1_2258)">
<g filter="url(#filter1_d_1_2258)">
<circle cx="155.915" cy="151.915" r="25.9153" fill="url(#paint0_linear_1_2258)"/>
<circle cx="155.915" cy="151.915" r="23.9153" stroke="url(#paint1_linear_1_2258)" stroke-opacity="0.4" stroke-width="4"/>
</g>
<path d="M175.269 144.422C181.333 151.969 175.613 154.37 169.812 144.747C164.011 135.125 152.823 140.7 144.457 141.177C136.091 141.655 148.011 129.65 158.874 134.346C169.738 139.042 169.205 136.876 175.269 144.422Z" fill="#46D78A"/>
<path d="M173.607 154.245C173.857 153.15 170.192 154.266 168.525 152.053C166.857 149.84 154.107 147.934 161.857 150.84C161.857 150.84 158.489 148.604 162.607 152.053C166.724 155.501 173.357 155.34 173.607 154.245Z" fill="#46D78A"/>
<path d="M137.76 146.375C137.694 147.544 139.799 152.465 141.029 150.92C142.26 149.375 150.26 156.375 153.26 155.375C156.26 154.375 147.76 151.375 149.26 149.8C150.76 148.225 137.826 145.207 137.76 146.375Z" fill="#5CE69C"/>
<path d="M142.76 162.365C139.262 162.365 148.006 168.599 149.758 167.113C151.511 165.627 160.564 171.98 164.837 171.019C169.11 170.057 164.758 164.613 154.758 164.113C144.758 163.613 146.258 162.365 142.76 162.365Z" fill="#5DE39C"/>
</g>
<defs>
<filter id="filter0_df_1_2258" x="110" y="106" width="91.8306" height="91.8311" filterUnits="userSpaceOnUse" color-interpolation-filters="sRGB">
<feFlood flood-opacity="0" result="BackgroundImageFix"/>
<feColorMatrix in="SourceAlpha" type="matrix" values="0 0 0 0 0 0 0 0 0 0 0 0 0 0 0 0 0 0 127 0" result="hardAlpha"/>
<feOffset/>
<feGaussianBlur stdDeviation="10"/>
<feComposite in2="hardAlpha" operator="out"/>
<feColorMatrix type="matrix" values="0 0 0 0 0.45098 0 0 0 0 0.945098 0 0 0 0 0.559686 0 0 0 0.6 0"/>
<feBlend mode="normal" in2="BackgroundImageFix" result="effect1_dropShadow_1_2258"/>
<feBlend mode="normal" in="SourceGraphic" in2="effect1_dropShadow_1_2258" result="shape"/>
<feGaussianBlur stdDeviation="0.5" result="effect2_foregroundBlur_1_2258"/>
</filter>
<filter id="filter1_d_1_2258" x="0" y="0" width="331.831" height="331.831" filterUnits="userSpaceOnUse" color-interpolation-filters="sRGB">
<feFlood flood-opacity="0" result="BackgroundImageFix"/>
<feColorMatrix in="SourceAlpha" type="matrix" values="0 0 0 0 0 0 0 0 0 0 0 0 0 0 0 0 0 0 127 0" result="hardAlpha"/>
<feOffset dx="10" dy="14"/>
<feGaussianBlur stdDeviation="70"/>
<feComposite in2="hardAlpha" operator="out"/>
<feColorMatrix type="matrix" values="0 0 0 0 0.913725 0 0 0 0 0.368627 0 0 0 0 0.333333 0 0 0 0.1 0"/>
<feBlend mode="normal" in2="BackgroundImageFix" result="effect1_dropShadow_1_2258"/>
<feBlend mode="normal" in="SourceGraphic" in2="effect1_dropShadow_1_2258" result="shape"/>
</filter>
<linearGradient id="paint0_linear_1_2258" x1="137.585" y1="168.349" x2="175.51" y2="134.217" gradientUnits="userSpaceOnUse">
<stop stop-color="#52EE91"/>
<stop offset="1" stop-color="#19A964"/>
</linearGradient>
<linearGradient id="paint1_linear_1_2258" x1="176.142" y1="134.849" x2="138.849" y2="169.614" gradientUnits="userSpaceOnUse">
<stop stop-color="#108D51"/>
<stop offset="1" stop-color="#C3FDE1"/>
</linearGradient>
</defs>
</svg>
