<svg width="646" height="660" viewBox="0 0 646 660" fill="none" xmlns="http://www.w3.org/2000/svg">
<g filter="url(#filter0_d_1_2280)">
<path d="M505.494 131.207C483.473 111.562 415.451 159.109 415.451 159.109L497.605 219.174C497.605 219.174 531.232 154.168 505.494 131.207Z" fill="url(#paint0_linear_1_2280)" shape-rendering="crispEdges"/>
<path d="M505.494 131.207C483.473 111.562 415.451 159.109 415.451 159.109L497.605 219.174C497.605 219.174 531.232 154.168 505.494 131.207Z" stroke="url(#paint1_linear_1_2280)" stroke-opacity="0.4" stroke-width="3" shape-rendering="crispEdges"/>
</g>
<g filter="url(#filter1_d_1_2280)">
<path d="M181.572 329.823C203.501 314.32 249.975 322.753 249.975 322.753L231.025 361.895C231.025 361.895 158.671 360.506 162.395 350.225C166.119 339.944 172.643 336.135 181.572 329.823Z" fill="url(#paint2_linear_1_2280)" shape-rendering="crispEdges"/>
<path d="M181.572 329.823C203.501 314.32 249.975 322.753 249.975 322.753L231.025 361.895C231.025 361.895 158.671 360.506 162.395 350.225C166.119 339.944 172.643 336.135 181.572 329.823Z" stroke="url(#paint3_linear_1_2280)" stroke-opacity="0.4" stroke-width="3" shape-rendering="crispEdges"/>
</g>
<g filter="url(#filter2_d_1_2280)">
<path d="M361.335 483.796C375.452 460.95 364.161 415.086 364.161 415.086L326.265 436.422C326.265 436.422 332.128 508.551 342.159 504.198C352.189 499.845 355.588 493.098 361.335 483.796Z" fill="url(#paint4_linear_1_2280)" shape-rendering="crispEdges"/>
<path d="M361.335 483.796C375.452 460.95 364.161 415.086 364.161 415.086L326.265 436.422C326.265 436.422 332.128 508.551 342.159 504.198C352.189 499.845 355.588 493.098 361.335 483.796Z" stroke="url(#paint5_linear_1_2280)" stroke-opacity="0.4" stroke-width="3" shape-rendering="crispEdges"/>
</g>
<g filter="url(#filter3_d_1_2280)">
<path d="M474.072 164.712C454.122 153.085 439.064 149.557 418.758 155.419C399.861 160.874 345.512 201.395 301.622 248.09C233.043 321.05 207.688 409.215 207.688 409.215C238.262 437.954 242.355 474.094 280.689 477.832C319.022 481.57 486.19 304.079 500.561 214.522C503.309 197.394 490.374 174.212 474.072 164.712Z" fill="url(#paint6_linear_1_2280)"/>
<path d="M474.072 164.712C454.122 153.085 439.064 149.557 418.758 155.419C399.861 160.874 345.512 201.395 301.622 248.09C233.043 321.05 207.688 409.215 207.688 409.215C238.262 437.954 242.355 474.094 280.689 477.832C319.022 481.57 486.19 304.079 500.561 214.522C503.309 197.394 490.374 174.212 474.072 164.712Z" fill="url(#paint7_radial_1_2280)" fill-opacity="0.7"/>
<path d="M474.072 164.712C454.122 153.085 439.064 149.557 418.758 155.419C399.861 160.874 345.512 201.395 301.622 248.09C233.043 321.05 207.688 409.215 207.688 409.215C238.262 437.954 242.355 474.094 280.689 477.832C319.022 481.57 486.19 304.079 500.561 214.522C503.309 197.394 490.374 174.212 474.072 164.712Z" stroke="url(#paint8_linear_1_2280)" stroke-width="4"/>
</g>
<path d="M407.393 208.808C418.024 197.443 435.832 187.535 448.532 196.529C460.962 205.331 457.66 222.502 449.739 235.51C439.383 252.518 410.182 264.209 400.073 247.053C394.283 237.227 397.015 219.901 407.393 208.808Z" fill="url(#paint9_linear_1_2280)"/>
<path d="M449.977 194.489C442.711 189.343 434.13 189.749 426.306 192.694C418.495 195.634 411.076 201.211 405.567 207.1C400.021 213.028 396.544 220.584 395.21 227.96C393.882 235.298 394.631 242.742 397.919 248.322C403.823 258.342 415.166 259.541 425.52 256.491C435.91 253.43 446.34 245.899 451.874 236.81C455.982 230.064 458.983 222.105 459.265 214.535C459.551 206.879 457.033 199.486 449.977 194.489Z" stroke="url(#paint10_linear_1_2280)" stroke-opacity="0.65" stroke-width="5"/>
<path d="M342.206 300.193C348.826 293.116 359.915 286.946 367.824 292.547C375.563 298.028 373.508 308.72 368.575 316.821C362.126 327.411 343.943 334.691 337.648 324.008C334.042 317.89 335.744 307.101 342.206 300.193Z" fill="url(#paint11_linear_1_2280)"/>
<path d="M369.269 290.507C364.398 287.057 358.695 287.378 353.651 289.276C348.62 291.17 343.884 294.74 340.38 298.485C336.792 302.321 334.552 307.196 333.692 311.951C332.838 316.668 333.298 321.551 335.494 325.277C339.491 332.061 347.126 332.744 353.76 330.79C360.431 328.825 367.13 324.001 370.71 318.121C373.324 313.829 375.266 308.716 375.45 303.795C375.637 298.786 373.98 293.843 369.269 290.507Z" stroke="url(#paint12_linear_1_2280)" stroke-opacity="0.65" stroke-width="5"/>
<g filter="url(#filter4_d_1_2280)">
<path d="M275.884 412.295C257.494 395.133 221.404 389.221 213.871 397.236C206.337 405.251 203.852 416.91 205.026 431.467C206.387 448.347 223.92 470.499 223.92 470.499C223.92 470.499 246.201 487.143 262.633 486.987C277.13 486.849 293.187 479.337 297.235 473.535C309.089 456.543 294.402 429.575 275.884 412.295Z" fill="url(#paint13_linear_1_2280)" shape-rendering="crispEdges"/>
<path d="M275.884 412.295C257.494 395.133 221.404 389.221 213.871 397.236C206.337 405.251 203.852 416.91 205.026 431.467C206.387 448.347 223.92 470.499 223.92 470.499C223.92 470.499 246.201 487.143 262.633 486.987C277.13 486.849 293.187 479.337 297.235 473.535C309.089 456.543 294.402 429.575 275.884 412.295Z" stroke="url(#paint14_linear_1_2280)" stroke-opacity="0.4" stroke-width="3" shape-rendering="crispEdges"/>
</g>
<g filter="url(#filter5_d_1_2280)">
<path d="M210.656 482.58C200.566 473.582 190.926 468.838 178.5 474C161.491 481.066 155.853 492.472 146.5 508.5C132.985 531.66 126 574.545 131 576C136 577.455 170.316 571.358 187.5 557.5C203 545 216.5 538 223.5 516.5C228.152 502.213 221.811 492.529 210.656 482.58Z" fill="url(#paint15_linear_1_2280)" shape-rendering="crispEdges"/>
<path d="M211.322 481.834C206.236 477.299 201.179 473.755 195.758 472.027C190.298 470.286 184.538 470.409 178.116 473.077C161.97 479.785 155.828 490.396 147.561 504.68C146.933 505.764 146.294 506.87 145.636 507.996C138.801 519.709 133.648 536.34 130.827 550.19C129.415 557.12 128.578 563.4 128.412 568.061C128.33 570.383 128.412 572.355 128.694 573.821C128.834 574.551 129.035 575.211 129.326 575.739C129.615 576.264 130.057 576.767 130.72 576.96C131.514 577.191 132.739 577.246 134.196 577.191C135.69 577.135 137.543 576.957 139.659 576.663C143.893 576.073 149.229 575.005 154.942 573.458C166.339 570.371 179.374 565.338 188.128 558.279C190.719 556.188 193.268 554.246 195.747 552.355C207.972 543.034 218.535 534.981 224.451 516.81C226.847 509.45 226.425 503.202 223.921 497.51C221.436 491.862 216.934 486.839 211.322 481.834Z" stroke="url(#paint16_linear_1_2280)" stroke-opacity="0.4" stroke-width="2" shape-rendering="crispEdges"/>
</g>
<g filter="url(#filter6_d_1_2280)">
<path d="M211.543 481.799C203.576 474.766 196.322 471.906 185.761 473.093C171.302 474.718 165.409 485.43 158.018 497.963C147.338 516.073 144.266 545.572 153.676 551.623C159.801 555.562 182.222 550.165 196.861 540.782C210.363 532.128 222.546 525.46 223.404 509.446C224.033 497.714 220.35 489.574 211.543 481.799Z" fill="url(#paint17_radial_1_2280)" shape-rendering="crispEdges"/>
<path d="M211.543 481.799C203.576 474.766 196.322 471.906 185.761 473.093C171.302 474.718 165.409 485.43 158.018 497.963C147.338 516.073 144.266 545.572 153.676 551.623C159.801 555.562 182.222 550.165 196.861 540.782C210.363 532.128 222.546 525.46 223.404 509.446C224.033 497.714 220.35 489.574 211.543 481.799Z" stroke="url(#paint18_linear_1_2280)" stroke-opacity="0.4" stroke-width="2" shape-rendering="crispEdges"/>
</g>
<g filter="url(#filter7_d_1_2280)">
<ellipse cx="235.846" cy="460.486" rx="32.6353" ry="16.0414" transform="rotate(40.0399 235.846 460.486)" fill="url(#paint19_radial_1_2280)"/>
<path d="M260.066 480.837C257.597 483.776 252.737 484.595 246.456 483.045C240.245 481.512 232.978 477.722 226.17 472.001C219.361 466.281 214.377 459.775 211.797 453.921C209.187 448.001 209.157 443.072 211.626 440.134C214.095 437.196 218.955 436.377 225.236 437.927C231.447 439.46 238.714 443.249 245.523 448.97C252.331 454.691 257.316 461.197 259.896 467.051C262.505 472.971 262.535 477.899 260.066 480.837Z" stroke="url(#paint20_linear_1_2280)" stroke-opacity="0.4" stroke-width="2"/>
</g>
<path fill-rule="evenodd" clip-rule="evenodd" d="M410.269 224.768C410.709 223.883 409.86 222.914 409.047 223.477C405.393 226.003 403 230.222 403 235C403 240.17 405.802 244.685 409.97 247.11C410.825 247.607 411.595 246.575 411.086 245.726C409.129 242.459 408 238.614 408 234.5C408 230.998 408.818 227.69 410.269 224.768Z" fill="url(#paint21_linear_1_2280)"/>
<path fill-rule="evenodd" clip-rule="evenodd" d="M344.118 310.648C344.475 309.725 343.614 308.811 342.888 309.483C341.169 311.075 340.093 313.352 340.093 315.88C340.093 318.652 341.387 321.123 343.405 322.719C344.18 323.333 344.967 322.354 344.539 321.462C343.686 319.684 343.207 317.684 343.207 315.569C343.207 313.831 343.53 312.171 344.118 310.648Z" fill="url(#paint22_linear_1_2280)"/>
<path opacity="0.25" d="M355 145.766C416.856 128.505 450.135 121.516 498.105 115.962C503.805 115.302 508.267 110.723 508.723 105.003C509.542 94.721 499.928 86.7198 490.03 89.6215C445.078 102.8 411.857 116.913 355 145.766Z" fill="url(#paint23_linear_1_2280)" stroke="url(#paint24_linear_1_2280)" stroke-width="2"/>
<path opacity="0.25" d="M525.973 280.313C528.223 216.642 527.185 182.924 521.268 135.487C520.555 129.769 523.946 124.321 529.41 122.493C539.299 119.184 549.479 126.713 548.967 137.128C546.692 183.374 540.727 218.755 525.973 280.313Z" fill="url(#paint25_linear_1_2280)" stroke="url(#paint26_linear_1_2280)" stroke-width="2"/>
<path d="M327.723 366.207C324.591 370.107 314.364 383.648 299.101 398.245C284.439 412.268 268.065 423.16 264.954 420.663C261.812 418.14 269.835 400.415 280.499 382.882C291.381 364.991 301.238 353.037 304.339 349.175C310.478 341.529 324.336 333.698 330.684 338.795C337.032 343.892 333.862 358.561 327.723 366.207Z" fill="url(#paint27_linear_1_2280)" stroke="url(#paint28_linear_1_2280)" stroke-width="3"/>
<path fill-rule="evenodd" clip-rule="evenodd" d="M291.2 256.836C315.096 235.598 360.72 244.127 393.251 275.96C422.778 304.855 431.394 343.042 415.057 365.918C415.116 365.866 415.174 365.813 415.233 365.761C439.08 344.324 431.976 301.077 399.366 269.166C366.755 237.254 320.987 228.762 297.139 250.198C294.884 252.225 292.906 254.447 291.2 256.836Z" fill="url(#paint29_linear_1_2280)"/>
<path fill-rule="evenodd" clip-rule="evenodd" d="M285.2 263.686C309.096 242.448 354.72 250.977 387.251 282.811C416.778 311.705 425.394 349.892 409.057 372.768C409.116 372.716 409.174 372.663 409.233 372.611C433.08 351.175 425.976 307.927 393.366 276.016C360.755 244.104 314.987 235.612 291.139 257.048C288.884 259.075 286.906 261.297 285.2 263.686Z" fill="url(#paint30_linear_1_2280)"/>
<path d="M519.517 111.784C519.993 111.246 520.785 111.123 521.402 111.49C522.17 111.948 522.368 112.973 521.825 113.683L508.008 131.756L504.51 128.754L519.517 111.784Z" fill="#5D33D6"/>
<circle cx="523.5" cy="109.5" r="4.5" fill="#5D33D6"/>
<defs>
<filter id="filter0_d_1_2280" x="398.872" y="114.95" width="131.822" height="124.468" filterUnits="userSpaceOnUse" color-interpolation-filters="sRGB">
<feFlood flood-opacity="0" result="BackgroundImageFix"/>
<feColorMatrix in="SourceAlpha" type="matrix" values="0 0 0 0 0 0 0 0 0 0 0 0 0 0 0 0 0 0 127 0" result="hardAlpha"/>
<feOffset dy="4"/>
<feGaussianBlur stdDeviation="7"/>
<feComposite in2="hardAlpha" operator="out"/>
<feColorMatrix type="matrix" values="0 0 0 0 0.160784 0 0 0 0 0.236863 0 0 0 0 0.921569 0 0 0 0.3 0"/>
<feBlend mode="normal" in2="BackgroundImageFix" result="effect1_dropShadow_1_2280"/>
<feBlend mode="normal" in="SourceGraphic" in2="effect1_dropShadow_1_2280" result="shape"/>
</filter>
<filter id="filter1_d_1_2280" x="146.756" y="308.963" width="119.43" height="72.4502" filterUnits="userSpaceOnUse" color-interpolation-filters="sRGB">
<feFlood flood-opacity="0" result="BackgroundImageFix"/>
<feColorMatrix in="SourceAlpha" type="matrix" values="0 0 0 0 0 0 0 0 0 0 0 0 0 0 0 0 0 0 127 0" result="hardAlpha"/>
<feOffset dy="4"/>
<feGaussianBlur stdDeviation="7"/>
<feComposite in2="hardAlpha" operator="out"/>
<feColorMatrix type="matrix" values="0 0 0 0 0.160784 0 0 0 0 0.236863 0 0 0 0 0.921569 0 0 0 0.3 0"/>
<feBlend mode="normal" in2="BackgroundImageFix" result="effect1_dropShadow_1_2280"/>
<feBlend mode="normal" in="SourceGraphic" in2="effect1_dropShadow_1_2280" result="shape"/>
</filter>
<filter id="filter2_d_1_2280" x="310.692" y="402.811" width="73.2441" height="121.077" filterUnits="userSpaceOnUse" color-interpolation-filters="sRGB">
<feFlood flood-opacity="0" result="BackgroundImageFix"/>
<feColorMatrix in="SourceAlpha" type="matrix" values="0 0 0 0 0 0 0 0 0 0 0 0 0 0 0 0 0 0 127 0" result="hardAlpha"/>
<feOffset dy="4"/>
<feGaussianBlur stdDeviation="7"/>
<feComposite in2="hardAlpha" operator="out"/>
<feColorMatrix type="matrix" values="0 0 0 0 0.176 0 0 0 0 0.160784 0 0 0 0 0.921569 0 0 0 0.3 0"/>
<feBlend mode="normal" in2="BackgroundImageFix" result="effect1_dropShadow_1_2280"/>
<feBlend mode="normal" in="SourceGraphic" in2="effect1_dropShadow_1_2280" result="shape"/>
</filter>
<filter id="filter3_d_1_2280" x="171.428" y="120.634" width="365.503" height="397.256" filterUnits="userSpaceOnUse" color-interpolation-filters="sRGB">
<feFlood flood-opacity="0" result="BackgroundImageFix"/>
<feColorMatrix in="SourceAlpha" type="matrix" values="0 0 0 0 0 0 0 0 0 0 0 0 0 0 0 0 0 0 127 0" result="hardAlpha"/>
<feOffset dy="4"/>
<feGaussianBlur stdDeviation="17"/>
<feComposite in2="hardAlpha" operator="out"/>
<feColorMatrix type="matrix" values="0 0 0 0 0.970833 0 0 0 0 0.970833 0 0 0 0 0.970833 0 0 0 0.4 0"/>
<feBlend mode="normal" in2="BackgroundImageFix" result="effect1_dropShadow_1_2280"/>
<feBlend mode="normal" in="SourceGraphic" in2="effect1_dropShadow_1_2280" result="shape"/>
</filter>
<filter id="filter4_d_1_2280" x="189.249" y="382.21" width="127.755" height="124.278" filterUnits="userSpaceOnUse" color-interpolation-filters="sRGB">
<feFlood flood-opacity="0" result="BackgroundImageFix"/>
<feColorMatrix in="SourceAlpha" type="matrix" values="0 0 0 0 0 0 0 0 0 0 0 0 0 0 0 0 0 0 127 0" result="hardAlpha"/>
<feOffset dy="4"/>
<feGaussianBlur stdDeviation="7"/>
<feComposite in2="hardAlpha" operator="out"/>
<feColorMatrix type="matrix" values="0 0 0 0 0.160784 0 0 0 0 0.328157 0 0 0 0 0.921569 0 0 0 0.3 0"/>
<feBlend mode="normal" in2="BackgroundImageFix" result="effect1_dropShadow_1_2280"/>
<feBlend mode="normal" in="SourceGraphic" in2="effect1_dropShadow_1_2280" result="shape"/>
</filter>
<filter id="filter5_d_1_2280" x="113.382" y="459.869" width="127.659" height="136.341" filterUnits="userSpaceOnUse" color-interpolation-filters="sRGB">
<feFlood flood-opacity="0" result="BackgroundImageFix"/>
<feColorMatrix in="SourceAlpha" type="matrix" values="0 0 0 0 0 0 0 0 0 0 0 0 0 0 0 0 0 0 127 0" result="hardAlpha"/>
<feOffset dy="4"/>
<feGaussianBlur stdDeviation="7"/>
<feComposite in2="hardAlpha" operator="out"/>
<feColorMatrix type="matrix" values="0 0 0 0 0.870833 0 0 0 0 0.816406 0 0 0 0 0.5225 0 0 0 0.8 0"/>
<feBlend mode="normal" in2="BackgroundImageFix" result="effect1_dropShadow_1_2280"/>
<feBlend mode="normal" in="SourceGraphic" in2="effect1_dropShadow_1_2280" result="shape"/>
</filter>
<filter id="filter6_d_1_2280" x="133.061" y="461.833" width="105.412" height="110.093" filterUnits="userSpaceOnUse" color-interpolation-filters="sRGB">
<feFlood flood-opacity="0" result="BackgroundImageFix"/>
<feColorMatrix in="SourceAlpha" type="matrix" values="0 0 0 0 0 0 0 0 0 0 0 0 0 0 0 0 0 0 127 0" result="hardAlpha"/>
<feOffset dy="4"/>
<feGaussianBlur stdDeviation="7"/>
<feComposite in2="hardAlpha" operator="out"/>
<feColorMatrix type="matrix" values="0 0 0 0 0.992157 0 0 0 0 0.482353 0 0 0 0 0.14902 0 0 0 0.6 0"/>
<feBlend mode="normal" in2="BackgroundImageFix" result="effect1_dropShadow_1_2280"/>
<feBlend mode="normal" in="SourceGraphic" in2="effect1_dropShadow_1_2280" result="shape"/>
</filter>
<filter id="filter7_d_1_2280" x="200.806" y="429.159" width="72.0798" height="66.6543" filterUnits="userSpaceOnUse" color-interpolation-filters="sRGB">
<feFlood flood-opacity="0" result="BackgroundImageFix"/>
<feColorMatrix in="SourceAlpha" type="matrix" values="0 0 0 0 0 0 0 0 0 0 0 0 0 0 0 0 0 0 127 0" result="hardAlpha"/>
<feOffset dx="1" dy="2"/>
<feGaussianBlur stdDeviation="4.5"/>
<feComposite in2="hardAlpha" operator="out"/>
<feColorMatrix type="matrix" values="0 0 0 0 0.145098 0 0 0 0 0.229804 0 0 0 0 0.992157 0 0 0 0.7 0"/>
<feBlend mode="normal" in2="BackgroundImageFix" result="effect1_dropShadow_1_2280"/>
<feBlend mode="normal" in="SourceGraphic" in2="effect1_dropShadow_1_2280" result="shape"/>
</filter>
<linearGradient id="paint0_linear_1_2280" x1="518.5" y1="148" x2="439.155" y2="162.05" gradientUnits="userSpaceOnUse">
<stop stop-color="#4441BD"/>
<stop offset="0.369534" stop-color="#413BBC"/>
<stop offset="1" stop-color="#584AD7"/>
</linearGradient>
<linearGradient id="paint1_linear_1_2280" x1="508.414" y1="133.94" x2="452.247" y2="193.696" gradientUnits="userSpaceOnUse">
<stop stop-color="#1F1E7C"/>
<stop offset="1" stop-color="#1E1778"/>
</linearGradient>
<linearGradient id="paint2_linear_1_2280" x1="236.525" y1="322.462" x2="183.5" y2="361" gradientUnits="userSpaceOnUse">
<stop stop-color="#503FC4"/>
<stop offset="1" stop-color="#7975EA"/>
</linearGradient>
<linearGradient id="paint3_linear_1_2280" x1="238.317" y1="311.795" x2="183.526" y2="370.087" gradientUnits="userSpaceOnUse">
<stop stop-color="#3645CE"/>
<stop offset="1" stop-color="#2025A4"/>
</linearGradient>
<linearGradient id="paint4_linear_1_2280" x1="381.5" y1="431.5" x2="326.5" y2="492.5" gradientUnits="userSpaceOnUse">
<stop stop-color="#3C2BA7"/>
<stop offset="1" stop-color="#7165E6"/>
</linearGradient>
<linearGradient id="paint5_linear_1_2280" x1="375.819" y1="426.045" x2="321.028" y2="484.337" gradientUnits="userSpaceOnUse">
<stop stop-color="#4236CE"/>
<stop offset="1" stop-color="#2025A4"/>
</linearGradient>
<linearGradient id="paint6_linear_1_2280" x1="500" y1="217.001" x2="217.787" y2="404.455" gradientUnits="userSpaceOnUse">
<stop stop-color="#A5ABC1"/>
<stop offset="0.520833" stop-color="#CEE4DF"/>
<stop offset="1" stop-color="#CDCFE2"/>
</linearGradient>
<radialGradient id="paint7_radial_1_2280" cx="0" cy="0" r="1" gradientUnits="userSpaceOnUse" gradientTransform="translate(277.5 341.001) rotate(-33.9591) scale(59.0762 42.2042)">
<stop stop-color="white"/>
<stop offset="1" stop-color="white" stop-opacity="0"/>
</radialGradient>
<linearGradient id="paint8_linear_1_2280" x1="513" y1="200.001" x2="182.5" y2="436.001" gradientUnits="userSpaceOnUse">
<stop stop-color="#A8AEB3"/>
<stop offset="0.496685" stop-color="#CDD8E2"/>
<stop offset="1" stop-color="#E4E9ED"/>
</linearGradient>
<linearGradient id="paint9_linear_1_2280" x1="457.999" y1="203" x2="403.999" y2="237" gradientUnits="userSpaceOnUse">
<stop stop-color="#342F6C"/>
<stop offset="1" stop-color="#6D6D7C"/>
</linearGradient>
<linearGradient id="paint10_linear_1_2280" x1="395.999" y1="248.5" x2="457.9" y2="210.836" gradientUnits="userSpaceOnUse">
<stop stop-color="#EFE7FF"/>
<stop offset="1" stop-color="#C8ACDA"/>
</linearGradient>
<linearGradient id="paint11_linear_1_2280" x1="373.719" y1="296.576" x2="340.093" y2="317.748" gradientUnits="userSpaceOnUse">
<stop stop-color="#342F6C"/>
<stop offset="1" stop-color="#6D6D7C"/>
</linearGradient>
<linearGradient id="paint12_linear_1_2280" x1="335.111" y1="324.909" x2="373.657" y2="301.456" gradientUnits="userSpaceOnUse">
<stop stop-color="#EFE7FF"/>
<stop offset="1" stop-color="#C8ACDA"/>
</linearGradient>
<linearGradient id="paint13_linear_1_2280" x1="293" y1="431" x2="221.995" y2="464.841" gradientUnits="userSpaceOnUse">
<stop stop-color="#513FBE"/>
<stop offset="1" stop-color="#716FE8"/>
</linearGradient>
<linearGradient id="paint14_linear_1_2280" x1="276.652" y1="413.015" x2="223.23" y2="469.85" gradientUnits="userSpaceOnUse">
<stop stop-color="#272683"/>
<stop offset="1" stop-color="#3B3FAB"/>
</linearGradient>
<linearGradient id="paint15_linear_1_2280" x1="269.285" y1="412.302" x2="140.904" y2="571.061" gradientUnits="userSpaceOnUse">
<stop stop-color="#F9AC32"/>
<stop offset="1" stop-color="#EEE4AE"/>
</linearGradient>
<linearGradient id="paint16_linear_1_2280" x1="209.085" y1="477.51" x2="129.896" y2="566.79" gradientUnits="userSpaceOnUse">
<stop stop-color="#FAA430"/>
<stop offset="0.0001" stop-color="#E66D31"/>
<stop offset="1" stop-color="#EACC8A"/>
</linearGradient>
<radialGradient id="paint17_radial_1_2280" cx="0" cy="0" r="1" gradientUnits="userSpaceOnUse" gradientTransform="translate(207.777 489.42) rotate(128.673) scale(80.1561 74.7294)">
<stop stop-color="#F8B133"/>
<stop offset="1" stop-color="#FF6621"/>
</radialGradient>
<linearGradient id="paint18_linear_1_2280" x1="210.304" y1="477.836" x2="148.454" y2="548.283" gradientUnits="userSpaceOnUse">
<stop stop-color="#FE6B22"/>
<stop offset="0.0001" stop-color="#E66D31"/>
<stop offset="1" stop-color="#D55E20"/>
</linearGradient>
<radialGradient id="paint19_radial_1_2280" cx="0" cy="0" r="1" gradientUnits="userSpaceOnUse" gradientTransform="translate(235.846 460.486) rotate(90) scale(16.0414 32.6353)">
<stop stop-color="#94A8F1"/>
<stop offset="1" stop-color="#667ED5"/>
</radialGradient>
<linearGradient id="paint20_linear_1_2280" x1="261.635" y1="464.189" x2="218.926" y2="485.099" gradientUnits="userSpaceOnUse">
<stop stop-color="#3D54A7"/>
<stop offset="0.0001" stop-color="#3450B4"/>
<stop offset="1" stop-color="#2B37A6"/>
</linearGradient>
<linearGradient id="paint21_linear_1_2280" x1="407.124" y1="223.31" x2="407.124" y2="247.24" gradientUnits="userSpaceOnUse">
<stop stop-color="white" stop-opacity="0"/>
<stop offset="0.5625" stop-color="white" stop-opacity="0.87"/>
<stop offset="1" stop-color="white"/>
</linearGradient>
<linearGradient id="paint22_linear_1_2280" x1="342.376" y1="309.251" x2="342.376" y2="322.911" gradientUnits="userSpaceOnUse">
<stop stop-color="white" stop-opacity="0"/>
<stop offset="0.5625" stop-color="white" stop-opacity="0.87"/>
<stop offset="1" stop-color="white"/>
</linearGradient>
<linearGradient id="paint23_linear_1_2280" x1="508.629" y1="98.8265" x2="365.787" y2="159.296" gradientUnits="userSpaceOnUse">
<stop stop-color="#F9B033"/>
<stop offset="1" stop-color="#F9B033" stop-opacity="0"/>
</linearGradient>
<linearGradient id="paint24_linear_1_2280" x1="435.64" y1="77.9566" x2="429.763" y2="151.723" gradientUnits="userSpaceOnUse">
<stop stop-color="#F9B23A"/>
<stop offset="1" stop-color="#FFFBF3"/>
</linearGradient>
<linearGradient id="paint25_linear_1_2280" x1="535.555" y1="121.047" x2="512.656" y2="273.628" gradientUnits="userSpaceOnUse">
<stop stop-color="#F9B033"/>
<stop offset="1" stop-color="#F9B033" stop-opacity="0"/>
</linearGradient>
<linearGradient id="paint26_linear_1_2280" x1="564" y1="142.5" x2="516" y2="264" gradientUnits="userSpaceOnUse">
<stop stop-color="#FBC467"/>
<stop offset="1" stop-color="#FFF8ED"/>
</linearGradient>
<linearGradient id="paint27_linear_1_2280" x1="330.707" y1="338.813" x2="264.976" y2="420.681" gradientUnits="userSpaceOnUse">
<stop stop-color="#695ACC"/>
<stop offset="1" stop-color="#7975EA"/>
</linearGradient>
<linearGradient id="paint28_linear_1_2280" x1="330.707" y1="338.813" x2="264.976" y2="420.681" gradientUnits="userSpaceOnUse">
<stop stop-color="#605DCE"/>
<stop offset="1" stop-color="#5655CE"/>
</linearGradient>
<linearGradient id="paint29_linear_1_2280" x1="407.5" y1="279" x2="302.5" y2="251.5" gradientUnits="userSpaceOnUse">
<stop stop-color="#536FD3"/>
<stop offset="1" stop-color="#536FD3" stop-opacity="0.59"/>
</linearGradient>
<linearGradient id="paint30_linear_1_2280" x1="304" y1="252" x2="422" y2="341.5" gradientUnits="userSpaceOnUse">
<stop stop-color="#EBEFFF" stop-opacity="0.69"/>
<stop offset="1" stop-color="#EBEFFF"/>
</linearGradient>
</defs>
</svg>
