<svg width="1920" height="539" viewBox="0 0 1920 539" fill="none" xmlns="http://www.w3.org/2000/svg">
<g filter="url(#filter0_i_1_1915)">
<path d="M2299 585.15C2299 854.389 1729.28 1072.65 1026.5 1072.65C323.718 1072.65 -246 854.389 -246 585.15C-246 432.559 -123.5 -24.8513 122.5 101.65C429.186 259.358 553 -61.8516 932.5 12.149C1262.29 76.4562 1410.5 346.884 1638 272.149C2052 136.148 2299 417.462 2299 585.15Z" fill="#C4C4C4"/>
<path d="M2299 585.15C2299 854.389 1729.28 1072.65 1026.5 1072.65C323.718 1072.65 -246 854.389 -246 585.15C-246 432.559 -123.5 -24.8513 122.5 101.65C429.186 259.358 553 -61.8516 932.5 12.149C1262.29 76.4562 1410.5 346.884 1638 272.149C2052 136.148 2299 417.462 2299 585.15Z" fill="url(#paint0_linear_1_1915)"/>
</g>
<defs>
<filter id="filter0_i_1_1915" x="-246" y="0.897461" width="2545" height="1071.75" filterUnits="userSpaceOnUse" color-interpolation-filters="sRGB">
<feFlood flood-opacity="0" result="BackgroundImageFix"/>
<feBlend mode="normal" in="SourceGraphic" in2="BackgroundImageFix" result="shape"/>
<feColorMatrix in="SourceAlpha" type="matrix" values="0 0 0 0 0 0 0 0 0 0 0 0 0 0 0 0 0 0 127 0" result="hardAlpha"/>
<feOffset/>
<feGaussianBlur stdDeviation="35"/>
<feComposite in2="hardAlpha" operator="arithmetic" k2="-1" k3="1"/>
<feColorMatrix type="matrix" values="0 0 0 0 0.693128 0 0 0 0 0.581128 0 0 0 0 0.745833 0 0 0 0.2 0"/>
<feBlend mode="normal" in2="shape" result="effect1_innerShadow_1_1915"/>
</filter>
<linearGradient id="paint0_linear_1_1915" x1="2241.55" y1="97.555" x2="1130.51" y2="1633.55" gradientUnits="userSpaceOnUse">
<stop stop-color="#F9DAFA"/>
<stop offset="1" stop-color="#E8FFFB"/>
</linearGradient>
</defs>
</svg>
